<?xml version="1.0" encoding="UTF-8"?>
<svg id="Layer_1" xmlns="http://www.w3.org/2000/svg" xmlns:xlink="http://www.w3.org/1999/xlink" version="1.1" viewBox="0 0 51 39">
  <!-- Generator: Adobe Illustrator 29.0.0, SVG Export Plug-In . SVG Version: 2.1.0 Build 186)  -->
  <defs>
    <style>
      .st0 {
        fill: url(#linear-gradient2);
      }

      .st1 {
        fill: url(#linear-gradient1);
      }

      .st2 {
        fill: url(#linear-gradient3);
      }

      .st3 {
        fill: url(#linear-gradient5);
      }

      .st4 {
        fill: url(#linear-gradient4);
      }

      .st5 {
        fill: #231f20;
      }

      .st6 {
        fill: url(#linear-gradient);
      }
    </style>
    <linearGradient id="linear-gradient" x1="12.16" y1="28.32" x2="12.16" y2="20.03" gradientUnits="userSpaceOnUse">
      <stop offset="0" stop-color="#fdbc19"/>
      <stop offset=".1" stop-color="#f9bf2a"/>
      <stop offset=".29" stop-color="#f1c856"/>
      <stop offset=".37" stop-color="#eecd6b"/>
      <stop offset=".69" stop-color="#eaba10"/>
      <stop offset="1" stop-color="#c2912e"/>
    </linearGradient>
    <linearGradient id="linear-gradient1" x1="15.28" y1="16.01" x2="15.28" y2="4.28" xlink:href="#linear-gradient"/>
    <linearGradient id="linear-gradient2" x1="22.41" y1="28.33" x2="22.41" xlink:href="#linear-gradient"/>
    <linearGradient id="linear-gradient3" x1="35.85" y1="16.01" x2="35.85" y2="4.28" xlink:href="#linear-gradient"/>
    <linearGradient id="linear-gradient4" x1="32.35" y1="16.01" x2="32.35" y2="10.3" xlink:href="#linear-gradient"/>
    <linearGradient id="linear-gradient5" x1="37.17" y1="28.28" x2="37.17" xlink:href="#linear-gradient"/>
  </defs>
  <g>
    <path class="st6" d="M16.33,28.31c-2.83,0-5.66.03-8.48-.02-.4-.05-.3-.52-.17-.77,1.12-.04,2.45-.09,3.19-1.07.59-.66.5-1.59.53-2.41v-4.02h1.53v4.79c-.04.84.36,1.68,1.07,2.14.74.51,1.68.47,2.54.57.4.16.25.85-.21.77Z"/>
    <path class="st1" d="M23.02,16.01h-6.22c-1.29-2.98-2.58-5.97-3.88-8.95,0,2.98,0,5.97,0,8.95h-1.53c0-2.63,0-5.26,0-7.89-.05-.69.02-1.44-.27-2.09-.68-.97-2-.93-3.06-.94-.31.08-.63-.24-.49-.55.06-.33.44-.23.68-.26,3.26,0,6.51,0,9.77,0,1.67,3.91,3.34,7.81,5.01,11.72Z"/>
    <path class="st0" d="M18.54,20.03h7.72c-1.12,2.63-2.25,5.25-3.39,7.87-.09.32-.44.59-.74.31-.25-.37-.39-.8-.57-1.2-1.01-2.33-2.02-4.65-3.03-6.98Z"/>
    <path class="st2" d="M44.36,12.36c-1.41,1.07-3.73.8-4.72-.71-.64-1-.73-2.22-.88-3.37-.11-.86-.61-1.79-1.53-1.98-1.31-.25-2.57.38-3.67,1.03-1.82,1.1-3.17,2.86-4.02,4.8-.52,1.3-1.05,2.59-1.59,3.88h-1.66c.42-1.06.84-2.11,1.27-3.17.76-1.82,1.59-3.66,2.85-5.2,1.78-2.18,4.61-3.38,7.4-3.37,1.87-.01,3.84.39,5.33,1.59,1.01.82,1.92,1.9,2.15,3.23.25,1.15,0,2.51-.95,3.27Z"/>
    <path class="st4" d="M34.13,16.01h-3.57c.24-.51.49-1.01.75-1.5.65-1.26,1.23-2.57,2.11-3.69.16-.22.36-.39.59-.51-.18,1.89-.16,3.82.12,5.71Z"/>
    <path class="st3" d="M46.04,22.45c-1.02,2.01-2.6,3.79-4.64,4.81-2.2,1.15-4.85,1.29-7.21.61-2.79-.84-4.85-3.22-5.91-5.85-.16-.34.04-.7.16-1.02.14-.32.28-.64.41-.97h6.38c.53,1.26,1.27,2.44,2.34,3.31,1.54,1.24,3.88,1.35,5.53.25.85-.51,1.47-1.29,2.21-1.93.49-.2.99.33.74.79Z"/>
  </g>
  <g>
    <path class="st5" d="M6.84,16.22l.25-.22c.2-.17.38-.33.56-.48.11-.1.4-.33.51-.38.01,0,.22-.09.29-.08.1.01.27.04.32.17.02.06.04.3.01.34l-.17.22c-.13.22-.27.46-.41.7-.11.2-.22.41-.31.62-.09.2-.18.42-.28.65-.11.28-.23.58-.34.85-.11.29-.21.55-.26.75-.01.03-.11.34-.14.55-.04.18-.12.41-.11.49,0,.02,0,.16.01.26,0,.12.01.21,0,.23,0,.07-.04.09-.07.07-.03-.03-.07-.14-.09-.28-.01-.14-.01-.31,0-.41.01-.15.12-.94.19-1.27.04-.17.13-.5.25-.88l.15-.49c.08-.23.15-.46.23-.67.04-.1.08-.2.11-.28.12-.27.21-.47.22-.63,0-.03-.01-.04-.03-.05-.06,0-.17.01-.34.15-.16.13-.35.21-.5.33-.27.2-.51.4-.72.57-.2.17-.45.41-.71.63-.17.15-.38.38-.51.51-.12.13-.17.24-.26.3-.11.08-.27.11-.35.11-.09,0-.25-.14-.25-.2,0-.07-.03-.16,0-.31.02-.09.1-.38.13-.45.17-.48.21-.53.31-.83.05-.16.06-.14.09-.29.03-.12.13-.27.08-.34-.09-.13-.42.1-.58.24-.09.08-.19.17-.29.28-.09.09-.17.18-.27.28-.15.16-.32.34-.48.53-.26.29-.52.59-.77.87-.34.38-.65.72-.88.94-.11.1-.18.24-.29.33-.13.11-.35.14-.4.14-.08,0-.2-.14-.2-.21,0-.01-.05-.01-.04-.09,0-.05.07-.28.08-.32.05-.12.26-.2.29-.2.09-.01.34-.1.58-.29.32-.25.61-.48.92-.77.22-.21.44-.43.66-.64l.77-.78c.23-.23.44-.44.64-.63.12-.11.33-.25.42-.31.05-.03.16-.07.26-.07.1,0,.18.02.2.02.05.02.19.12.13.27-.01.06-.09.26-.15.37-.14.3-.32.65-.38.85-.11.34-.09.37-.13.63,0,.01-.04.22.03.22.05,0,.11-.02.14-.04.04-.02.22-.12.49-.33.31-.24.57-.51.77-.68.22-.19.42-.36.62-.53Z"/>
    <path class="st5" d="M10.92,17.04s-.01.07-.02.13c0,.05-.05.13-.08.14-.03.01-.11.08-.14.08-.08,0-.15-.03-.24-.01-.05.01-.12,0-.2.03-.15.07-.27.14-.36.22-.2.14-.31.26-.41.36-.08.07-.19.16-.27.28-.02.02-.15.2-.14.23,0,.02.11-.05.18-.09.37-.21,1.26-.75,1.53-.89.06-.06.15-.09.2-.09.03,0,.15.03.2.07s.05.08.05.12c0,.09-.01.16-.1.21-.12.06-.13.21-.15.24-.05.1-.09.24-.09.31,0,.09.02.15.05.2.05.06.14.07.24.03.15-.05.33-.15.43-.22.31-.2.55-.33.64-.43.02-.02.16-.07.2-.04.01,0,.03.1,0,.11-.07.05-.11.06-.22.13-.09.07-.35.22-.47.3-.24.16-.48.36-.66.49-.17.13-.21.17-.38.18-.18.01-.36-.22-.33-.46.01-.1.02-.27.05-.42.02-.11.02-.11.04-.19,0-.04,0-.07-.03-.07-.04,0-.09,0-.16.02-.08.02-.19.08-.22.09l-.33.21c-.18.12-.3.2-.44.34-.06.06-.2.16-.28.25-.13.12-.21.24-.28.27-.11.04-.27.02-.35-.04-.07-.05-.13-.23-.12-.28.02-.09.06-.21.14-.33.07-.11.15-.23.26-.36.17-.2.32-.32.54-.51.12-.1.31-.26.45-.35.15-.09.33-.19.53-.28.16-.08.34-.14.43-.15.16,0,.3.1.32.17Z"/>
    <path class="st5" d="M13.69,18.95c-.09.04-.18.08-.26.11-.1.04-.24.06-.37.08-.11.01-.23.01-.32.03-.1.02-.27,0-.45-.03-.09-.02-.2-.05-.31-.09-.1-.03-.2-.07-.28-.12-.07-.03-.11-.08-.14-.11-.12-.19-.02-.29.01-.17.01.04.08.09.16.13.07.03.14.05.22.08.16.04.33.07.43.07.14-.01.26.01.48-.01.08-.01.18-.04.28-.05.05,0,.19-.04.24-.18.04-.09-.04-.22-.14-.3-.05-.05-.11-.12-.19-.17-.06-.04-.12-.08-.17-.12-.1-.07-.17-.12-.19-.17-.03-.14,0-.2.02-.23.04-.08.12-.16.21-.23.08-.07.18-.13.27-.19.1-.06.21-.12.29-.16.08-.04.16-.08.24-.11.13-.05.26-.08.35-.1.09-.02.17-.03.25-.01.02.01.11.02.16.05.05.04.08.1.09.12,0,.04-.03.11-.04.15-.06.11-.12.2-.23.26-.03.02-.13.06-.21.07-.08.01-.15-.01-.16-.1,0-.01,0-.07,0-.09,0-.03-.02-.04-.04-.04-.02,0-.02-.03-.07-.02-.03.01-.15,0-.21.02-.06.03-.11.01-.14.03-.09.05-.15.07-.2.09-.07.03-.1.06-.15.14-.05.09.08.15.12.19.03.04.11.09.17.13.09.05.18.15.27.21.07.03.19.11.26.2.08.09.11.18.09.32-.01.06-.02.08-.11.19-.01.02-.14.09-.27.16Z"/>
    <path class="st5" d="M15.03,18.57c.03-.12.15-.33.23-.47.15-.26.31-.53.43-.72.19-.29.44-.58.64-.87-.14.03-.24.06-.32.09-.1.03-.44.12-.51.14-.06.02-.3,0-.34-.02-.07-.03-.06-.18-.01-.23.02-.02.15-.22.3-.25.12-.02.25.02.44.01.21-.01.45-.02.67-.03.09-.09.17-.18.24-.26.07-.09.12-.17.13-.2,0-.03.04-.13.15-.19.06-.03.28-.08.37-.02.03.02.07.16.07.21,0,.07-.02.12-.07.17-.07.08-.2.14-.27.19-.02.01-.04.03-.07.05.28-.02.6-.03.9-.04.32,0,.64.03.72.03.13,0,.16.05.12.07-.11.05-.07.01-.23.03-.04,0-.33,0-.52,0-.17,0-.36.03-.51.04-.19.01-.32.05-.39.07-.1.02-.22.04-.32.05-.11.13-.25.26-.36.42-.21.3-.32.5-.47.74-.09.12-.2.39-.27.52-.07.14-.13.3-.13.38,0,.05.01.08.04.1.04.02.1.01.14,0,.12-.02.33-.1.54-.2.2-.1.46-.18.64-.27.1-.05.37-.12.44-.16.02-.01.08.02.09.04,0,.01,0,.08-.03.09-.06.03-.11.01-.18.03-.16.05-.4.18-.6.29-.35.19-.43.25-.68.39-.04.03-.3.16-.39.22-.09.05-.19.08-.21.09-.06.02-.21,0-.29-.05-.08-.04-.14-.1-.15-.2-.02-.15.01-.17.04-.29Z"/>
    <path class="st5" d="M20.67,18.01s-.04.07-.09.09c-.07.02-.13-.02-.23.01-.1.03-.22.07-.34.13-.13.06-.31.13-.44.19-.14.07-.27.14-.4.21-.14.08-.28.15-.44.22-.24.11-.38.19-.58.26-.09.03-.18.04-.33.06-.12.01-.29-.06-.37-.16-.05-.07-.11-.21-.09-.32.02-.09.07-.24.13-.34.09-.14.18-.26.32-.41.12-.13.26-.26.42-.39.1-.09.22-.17.34-.25.1-.07.21-.13.31-.19.14-.08.28-.13.42-.16.12-.03.23-.05.33-.05.14-.01.24.01.28.05.06.04.18.15.17.21-.01.05-.01.18-.05.23-.04.05-.12.1-.19.12-.07.03-.14.05-.19.07-.12.03-.26.07-.42.13-.09.03-.17.07-.27.11-.12.05-.25.12-.38.19l-.38.2s-.04.07-.07.1c-.06.12-.13.2-.14.29-.01.11.05.17.13.17.13,0,.3-.02.52-.11.12-.05.26-.11.41-.17.2-.09.42-.18.62-.27.17-.07.33-.13.47-.18.27-.09.35-.12.45-.12.04,0,.09.04.09.07ZM19.46,17.3v-.03c-.05-.02-.12-.02-.18,0-.11.04-.23.15-.33.21-.14.09-.2.15-.33.26-.08.07-.14.12-.2.19.09-.04.24-.12.44-.22l.31-.16c.12-.07.19-.11.22-.13.03-.03.08-.08.08-.13Z"/>
    <path class="st5" d="M21.44,17.05c.06-.02.15-.03.23-.02.03,0,.09.02.13.04.04.02.06.05.08.07.03.03.04.11.02.15-.02.05-.04.07-.08.12-.02.03-.05.04-.11.12l-.08.13s-.02.05,0,.05c.02,0,.08-.03.08-.04.06-.05.11-.11.16-.14.16-.12.45-.35.68-.48.06-.03.13-.08.19-.11.07-.03.12-.05.2-.07.07-.02.1,0,.17-.01.03,0,.12.02.15.06.02.03.05.11.05.14-.03.13-.1.23-.22.31-.06.04-.03.05-.09.05-.09,0-.13.01-.19-.01-.09-.03-.14-.06-.21-.06-.05,0-.19.03-.26.06-.07.03-.25.16-.36.24-.14.1-.35.29-.47.41-.22.21-.17.16-.34.38-.09.11-.1.19-.12.23-.02.07-.02.14-.03.19-.01.07-.05.12-.09.18-.06.08-.21.13-.31.12-.08,0-.2-.18-.21-.25,0-.1.07-.26.11-.36.09-.18.14-.26.34-.55.07-.1.27-.38.33-.47.04-.05.05-.25.09-.32.02-.06.06-.12.15-.15Z"/>
    <path class="st5" d="M24.64,18.95c-.09.04-.18.08-.26.11-.1.04-.24.06-.37.08-.11.01-.23.01-.32.03-.1.02-.27,0-.45-.03-.09-.02-.2-.05-.31-.09-.1-.03-.2-.07-.28-.12-.07-.03-.11-.08-.14-.11-.12-.19-.02-.29.01-.17.01.04.08.09.16.13.07.03.14.05.22.08.16.04.33.07.43.07.14-.01.26.01.48-.01.08-.01.18-.04.28-.05.05,0,.19-.04.24-.18.04-.09-.04-.22-.14-.3-.05-.05-.11-.12-.19-.17-.06-.04-.12-.08-.17-.12-.1-.07-.17-.12-.19-.17-.03-.14,0-.2.02-.23.04-.08.12-.16.21-.23.08-.07.18-.13.27-.19.1-.06.21-.12.29-.16.08-.04.16-.08.24-.11.13-.05.26-.08.35-.1.09-.02.17-.03.25-.01.02.01.11.02.16.05.05.04.08.1.09.12,0,.04-.03.11-.04.15-.06.11-.12.2-.23.26-.03.02-.13.06-.21.07-.08.01-.15-.01-.16-.1,0-.01,0-.07,0-.09,0-.03-.02-.04-.04-.04-.02,0-.02-.03-.07-.02-.03.01-.15,0-.21.02-.06.03-.11.01-.14.03-.09.05-.15.07-.2.09-.07.03-.1.06-.15.14-.05.09.08.15.12.19.03.04.11.09.17.13.09.05.18.15.27.21.07.03.19.11.26.2.08.09.11.18.09.32-.01.06-.02.08-.11.19-.01.02-.14.09-.27.16Z"/>
    <path class="st5" d="M33.35,16.04s-.25-.12-.23-.26c.02-.08.02-.1.05-.18.02-.06.13-.27-.03-.28-.12-.01-.2-.03-.34.01-.35.11-.67.2-1.03.44-.15.1-.36.24-.58.4-.19.14-.38.3-.51.38-.2.12-.43.36-.61.51-.23.19-.45.4-.65.63-.23.26-.34.45-.47.65-.11.17-.21.46-.21.59,0,.26.02.42.33.56.13.05.54.03.71.02.19-.02.46-.07.7-.11.29-.06.68-.16.99-.26.42-.12.53-.19,1.1-.36.29-.1.84-.24,1.07-.29.04,0,.3-.05.32.01,0,0,0,.09-.02.13-.02.04-.17.09-.19.08-.16-.03-.71.06-1.07.18-.44.15-.61.22-1.01.38-.39.16-.72.29-1.1.41-.28.09-.56.17-.82.21-.13.02-.33.06-.52.06s-.36-.03-.47-.05c-.44-.08-.69-.4-.64-.86.02-.14.02-.26.09-.4.06-.15.16-.33.25-.48.16-.28.38-.55.61-.78.22-.23.47-.45.73-.66.27-.21.54-.41.81-.59.46-.3.89-.54,1.27-.7.1-.04.27-.13.44-.19.14-.04.29-.06.44-.1.22-.05.42-.08.58-.07.11,0,.27.04.36.1.05.03.15.08.21.21.04.1.08.07.06.21,0,.04,0,.08,0,.09-.04.15-.16.26-.27.32-.08.04-.31.04-.34.03Z"/>
    <path class="st5" d="M36.6,15.95l-.09.06c-.2.14-.44.31-.58.51-.17.24-.3.38-.47.62-.08.11-.15.24-.23.38-.08.14-.15.28-.21.41-.06.12-.15.34-.17.49,0,.05.01.12.09.17.04.03.16.02.2.01.13-.03.25-.08.46-.2.19-.1.4-.2.61-.32.09-.05.36-.19.43-.19.06,0,.11.03.11.05,0,.02-.04.08-.06.09-.06.02-.24.07-.32.11-.23.12-.47.28-.76.46-.14.09-.3.19-.43.29-.16.14-.34.21-.41.23-.04.01-.12.04-.21.03-.05,0-.17-.07-.2-.11-.1-.12-.1-.29-.09-.38.01-.11.05-.25.11-.41.05-.13.16-.33.23-.46.14-.26.25-.45.43-.7.13-.19.27-.39.42-.59.17-.23.32-.44.42-.58.07-.1.13-.16.14-.18.06-.07.12-.15.24-.2.13-.05.29-.04.34-.02.03,0,.08.07.11.1.01.01.04.04.03.07-.02.15-.01.15-.15.25Z"/>
    <path class="st5" d="M37.29,18.25c-.06.13-.08.23-.06.27.01.03.03.05.05.05.08,0,.25-.04.33-.07.09-.04.22-.09.36-.16.08-.04.17-.09.26-.15.08-.05.2-.12.31-.17.12-.06.22-.12.26-.14.02-.01.08-.02.12-.02.03,0,.04.02.04.03,0,.01.03.07,0,.1-.03.02-.05.02-.06.03-.07.03-.17.06-.22.09-.16.08-.26.11-.45.25-.13.09-.37.24-.49.32-.24.16-.37.29-.49.35-.04.02-.14.08-.16.09-.03.02-.16.05-.25-.01-.03-.02-.1-.03-.14-.09-.03-.04-.05-.12-.06-.18-.02-.09.03-.35.11-.53.07-.14.19-.38.26-.47.04-.05.16-.22.17-.31,0-.07.14-.21.18-.25.02-.02.16-.14.22-.18.09-.05.16-.02.2-.03.13-.02.24.11.21.19-.02.06-.1.12-.17.19-.04.04-.1.11-.15.17-.07.09-.13.17-.17.23-.1.13-.19.28-.25.41ZM38.02,16.5s0-.09.01-.12c.02-.13.09-.25.17-.34.09-.1.19-.16.25-.2.04-.01.1-.02.15-.02.1,0,.22.05.25.12.02.05-.04.19-.06.22-.05.07-.08.1-.1.13-.07.08-.16.16-.3.24-.03.02-.18.07-.26.06-.06,0-.13-.07-.13-.1Z"/>
    <path class="st5" d="M41.47,17.85c-.04.15-.07.22-.08.3-.01.08-.05.19-.05.22,0,.11.01.17.04.22.03.05.1.07.19.04.18-.07.37-.16.46-.23.31-.22.5-.32.6-.43.03-.02.17-.06.21-.04.01.01.02.1-.01.11-.08.05-.12.07-.23.13l-.47.33c-.23.17-.48.35-.66.47-.17.11-.2.13-.37.14-.19.01-.29-.2-.28-.44,0-.07.02-.21.04-.33.01-.13.07-.36.11-.52.02-.11.02-.11.02-.14,0-.07-.04-.12-.11-.1-.06.01-.21.11-.25.14-.14.1-.2.13-.34.24-.12.09-.24.22-.33.3-.09.08-.29.28-.34.36-.1.14-.09.13-.15.21-.07.08-.16.2-.21.23-.06.04-.14.09-.23.06-.1-.04-.2-.16-.19-.26.01-.13.09-.24.13-.34.02-.05.11-.22.21-.35.05-.07.23-.32.31-.45.04-.08.16-.26.16-.27.05-.07.07-.15.13-.22.04-.06.12-.09.17-.1.1-.03.18-.04.26-.03.05.01.13.05.14.09.01.04.01.1,0,.14-.02.04-.03.1-.09.16-.02.02-.12.09-.15.11-.08.09-.16.18-.23.26-.01.02-.08.15-.08.21,0,.02.02.02.03.02.04,0,.38-.27.44-.3.18-.13.31-.23.47-.35.08-.07.18-.15.26-.21.07-.05.15-.11.2-.15.07-.05.2-.09.25-.11.08-.02.18.01.25.09.03.03.06.08.05.13-.01.09-.04.17-.08.21-.06.08-.14.28-.2.47Z"/>
    <path class="st5" d="M43.47,18.25c-.06.13-.08.23-.06.27.01.03.03.05.05.05.08,0,.25-.04.33-.07.09-.04.22-.09.36-.16.08-.04.17-.09.26-.15.08-.05.2-.12.31-.17.12-.06.22-.12.26-.14.02-.01.08-.02.12-.02.03,0,.04.02.04.03,0,.01.03.07,0,.1-.03.02-.05.02-.06.03-.07.03-.17.06-.22.09-.16.08-.26.11-.45.25-.13.09-.37.24-.49.32-.24.16-.37.29-.49.35-.04.02-.14.08-.16.09-.03.02-.16.05-.25-.01-.03-.02-.1-.03-.14-.09-.03-.04-.05-.12-.06-.18-.02-.09.03-.35.11-.53.07-.14.19-.38.26-.47.04-.05.16-.22.17-.31,0-.07.14-.21.18-.25.02-.02.16-.14.22-.18.09-.05.16-.02.2-.03.13-.02.24.11.21.19-.02.06-.1.12-.17.19-.04.04-.1.11-.15.17-.07.09-.13.17-.17.23-.1.13-.19.28-.25.41ZM44.2,16.5s0-.09.01-.12c.02-.13.09-.25.17-.34.09-.1.19-.16.25-.2.04-.01.1-.02.15-.02.1,0,.22.05.25.12.02.05-.04.19-.06.22-.05.07-.08.1-.1.13-.07.08-.16.16-.3.24-.03.02-.18.07-.26.06-.06,0-.13-.07-.13-.1Z"/>
    <path class="st5" d="M48.34,18.01s-.03.07-.09.09c-.07.02-.13-.02-.23.01-.11.03-.22.07-.34.13-.15.08-.35.16-.53.25-.25.12-.6.31-.74.38-.24.11-.38.19-.58.26-.09.03-.18.04-.33.06-.12.01-.29-.06-.37-.16-.05-.07-.12-.21-.1-.32.02-.09.07-.24.13-.34.09-.14.18-.26.32-.41.12-.13.26-.26.42-.39.19-.16.45-.33.64-.44.27-.15.55-.2.75-.22.14-.01.23.01.28.05.06.04.17.15.16.21,0,.05,0,.18-.05.23-.04.05-.12.1-.18.12-.07.02-.16.02-.21.02-.04,0-.09-.02-.11-.04-.03-.02-.08-.09-.08-.12,0-.02,0-.05.01-.09h0s-.12-.03-.18,0c-.1.04-.22.15-.33.21-.14.09-.2.15-.33.26-.1.09-.17.15-.26.25-.1.12-.19.2-.24.32-.06.12-.13.2-.14.29-.01.11.05.17.13.17.12,0,.3-.02.52-.11.31-.12.89-.37,1.23-.51.16-.06.14-.07.27-.11.27-.09.35-.12.45-.12.04,0,.09.04.09.07Z"/>
    <path class="st5" d="M49.58,18.95c-.09.04-.18.08-.26.11-.1.04-.24.06-.37.08-.11.01-.23.01-.32.03-.1.02-.27,0-.45-.03-.09-.02-.2-.05-.31-.09-.1-.03-.2-.07-.28-.12-.06-.03-.11-.08-.14-.11-.12-.19-.02-.29.01-.17.01.04.08.09.16.13.07.03.14.05.22.08.16.04.33.07.43.07.14-.01.26.01.48-.01.08-.01.18-.04.28-.05.05,0,.19-.04.24-.18.04-.09-.04-.22-.14-.3-.05-.05-.11-.12-.19-.17-.06-.04-.12-.08-.17-.12-.1-.07-.17-.12-.19-.17-.03-.14,0-.2.02-.23.04-.08.12-.16.21-.23.08-.07.18-.13.27-.19.1-.06.21-.12.29-.16.08-.04.16-.08.24-.11.13-.05.26-.08.35-.1.09-.02.17-.03.25-.01.02.01.11.02.16.05.05.04.08.1.09.12,0,.04-.03.11-.04.15-.06.11-.12.2-.23.26-.03.02-.13.06-.21.07-.08.01-.15-.01-.16-.1,0-.01,0-.07,0-.09,0-.03-.02-.04-.04-.04-.02,0-.02-.03-.07-.02-.03.01-.15,0-.21.02-.06.03-.11.01-.14.03-.09.05-.15.07-.2.09-.07.03-.1.06-.15.14-.05.09.08.15.12.19.03.04.11.09.17.13.09.05.18.15.27.21.07.03.19.11.26.2.08.09.11.18.09.32-.01.06-.02.08-.11.19-.01.02-.14.09-.27.16Z"/>
  </g>
  <g>
    <path class="st5" d="M8.55,33.94c0,.18-.08.35-.23.49-.14.13-.32.22-.54.27-.09.02-.17.03-.26.03-.13,0-.25-.02-.37-.06-.22-.08-.37-.19-.45-.34.1.04.22.06.38.06.09,0,.19-.01.29-.03.32-.07.48-.25.48-.54v-2.67c.11,0,.22.02.35.05.24.05.36.15.36.28v2.49ZM8.51,30.6s-.02.06-.06.09c-.04.03-.09.05-.16.05h-.46v-.41s.02-.06.05-.09c.05-.04.1-.06.16-.06h.46v.41Z"/>
    <path class="st5" d="M10.88,33.56h-.1c-.08,0-.19-.02-.33-.05-.03,0-.07-.02-.12-.02v.44c0,.18-.08.35-.23.49-.14.13-.32.22-.54.27-.09.02-.17.03-.26.03-.13,0-.25-.02-.37-.06-.22-.08-.37-.19-.45-.34.1.04.22.06.38.06.09,0,.19-.01.29-.03.32-.07.48-.25.48-.54v-2.67c.11,0,.22.02.35.05.24.05.36.15.36.28v1.58c.14.03.27.04.38.04h.16v.49Z"/>
    <path class="st5" d="M10.74,33.08h1.18v.49h-1.18v-.49Z"/>
    <path class="st5" d="M13.75,33.56c-.33,0-.59-.06-.78-.19-.2.13-.44.19-.73.19h-.09s-.36,0-.36,0v-.49h.39c.25,0,.38-.12.38-.36v-1.26c0-.12.12-.22.36-.27.13-.03.24-.05.35-.05v1.64c0,.09.04.17.12.23.07.05.16.08.26.08h.34v.49h-.23ZM12.78,30.6s-.02.06-.06.09c-.04.03-.09.05-.16.05h-.46v-.41s.02-.06.06-.09c.05-.04.1-.06.15-.06h.46v.41ZM13.72,30.6s-.02.06-.06.09c-.04.03-.1.05-.16.05h-.46v-.41s.02-.06.06-.09c.05-.04.1-.06.15-.06h.47v.41Z"/>
    <path class="st5" d="M13.84,33.08h1.18v.49h-1.18v-.49Z"/>
    <path class="st5" d="M14.88,33.08h.46v-1.62c0-.13.12-.22.36-.28.13-.03.24-.05.35-.05v1.9c.14.03.27.04.38.04.25,0,.38-.12.38-.36v-1.26c0-.12.12-.22.36-.27.13-.03.24-.05.35-.05v1.65c0,.09.04.17.12.23.07.05.16.08.26.08.25,0,.38-.14.38-.43v-1.2c0-.13.12-.22.36-.28.13-.03.24-.05.35-.05v1.61c0,.26-.09.47-.28.62-.18.14-.41.21-.69.21-.33,0-.59-.06-.78-.19-.2.13-.44.19-.73.19-.08,0-.19-.02-.33-.05-.14-.03-.25-.05-.32-.05-.16,0-.28.01-.36.04-.08.03-.14.04-.18.05-.02,0-.04,0-.06,0h-.36v-.49Z"/>
    <path class="st5" d="M20.61,33.56c-.08,0-.19-.02-.33-.05-.14-.03-.25-.05-.32-.05-.24,0-.41.03-.5.08v-2.97c0-.13.12-.22.36-.28.13-.03.24-.04.35-.04v2.77c.14.03.27.04.38.04h.23v.49h-.17Z"/>
    <path class="st5" d="M20.64,33.08h1.18v.49h-1.18v-.49Z"/>
    <path class="st5" d="M21.68,33.08h1.18v.49h-1.18v-.49Z"/>
    <path class="st5" d="M23.79,33.47s-.07-.01-.11-.01c-.02,0-.04,0-.06,0-.06,0-.13.02-.21.05-.08.03-.14.04-.18.05-.02,0-.04,0-.06,0h-.44v-.49h.61c-.04-.12-.06-.23-.06-.33v-.81c0-.26.09-.47.28-.61.2-.15.49-.22.87-.22s.69.07.88.22c.19.14.28.34.28.61v.8c0,.55-.39.83-1.16.83-.25,0-.46-.03-.64-.1ZM23.98,32.67c0,.14.03.25.09.31.07.07.19.11.36.11s.29-.04.36-.11c.06-.06.09-.17.09-.31v-.66c0-.14-.03-.25-.09-.31-.07-.07-.19-.11-.36-.11s-.29.04-.36.11c-.06.06-.09.16-.09.31v.66Z"/>
    <path class="st5" d="M29.03,33.56c-.67,0-1.11-.17-1.32-.51-.09-.15-.14-.32-.14-.51,0-.09.01-.19.03-.3.07-.33.22-.52.44-.59-.05.15-.07.3-.07.46,0,.23.06.43.19.59.19.25.48.37.86.37h1.6c.26,0,.38-.12.38-.36v-1.26c0-.12.12-.22.36-.27.13-.03.24-.05.35-.05v1.66c0,.28-.11.48-.32.62-.18.11-.41.16-.71.16h-1.66ZM29.45,31.22s-.02.06-.06.09c-.04.03-.09.05-.16.05h-.46v-.41s.02-.06.06-.09c.05-.04.1-.06.15-.06h.46v.41ZM30.39,31.22s-.02.06-.06.09c-.04.03-.1.05-.16.05h-.46v-.41s.02-.06.06-.09c.05-.04.1-.06.15-.06h.47v.41Z"/>
    <path class="st5" d="M32.93,33.28c0,.13-.12.22-.37.28-.13.03-.25.05-.36.05v-3.03c0-.13.12-.22.37-.28.13-.03.25-.04.36-.04v3.03Z"/>
    <path class="st5" d="M33.8,33.56c-.17,0-.28-.06-.34-.18-.04-.08-.06-.21-.06-.37.07.04.26.06.56.06h.84v-.99c0-.2-.06-.34-.17-.41-.08-.05-.2-.08-.36-.08-.15,0-.28.05-.39.14-.13.11-.19.23-.19.37-.11-.15-.16-.31-.16-.47,0-.19.11-.33.33-.43.16-.07.35-.1.56-.1.35,0,.61.07.8.22.18.14.27.35.27.61v1.63h-1.71Z"/>
    <path class="st5" d="M37.15,33.56c-.08,0-.19-.02-.33-.05-.14-.03-.25-.05-.32-.05-.24,0-.41.03-.5.08v-2.97c0-.13.12-.22.36-.28.13-.03.24-.04.35-.04v2.77c.14.03.27.04.38.04h.23v.49h-.17Z"/>
    <path class="st5" d="M37.18,33.08h1.18v.49h-1.18v-.49Z"/>
    <path class="st5" d="M40.19,33.56c-.33,0-.59-.06-.78-.19-.2.13-.44.19-.73.19h-.09s-.36,0-.36,0v-.49h.39c.25,0,.38-.12.38-.36v-1.26c0-.12.12-.22.36-.27.13-.03.24-.05.35-.05v1.64c0,.09.04.17.12.23.07.05.16.08.26.08h.34v.49h-.23ZM39.15,34.34s-.02.06-.06.09c-.04.03-.09.05-.16.05h-.46v-.41s.02-.06.06-.09c.05-.04.1-.06.15-.06h.46v.41ZM40.09,34.34s-.02.06-.06.09c-.04.03-.1.05-.16.05h-.46v-.41s.02-.06.06-.09c.05-.04.1-.06.15-.06h.47v.41Z"/>
    <path class="st5" d="M40.28,33.08h1.18v.49h-1.18v-.49Z"/>
    <path class="st5" d="M41.32,33.08h1.18v.49h-1.18v-.49Z"/>
    <path class="st5" d="M42.36,33.56v-.49h1c-.33-.1-.5-.33-.5-.69v-.47c0-.26.09-.46.27-.61.19-.15.45-.22.8-.22.22,0,.41.03.57.1.22.09.33.23.33.42,0,.16-.05.31-.16.47,0-.14-.06-.26-.19-.37-.11-.09-.24-.14-.39-.14-.16,0-.28.03-.36.08-.11.08-.17.22-.17.42v.58c.01.1.05.19.11.25.11.12.27.18.5.18h.75c0,.07-.02.15-.05.23-.07.17-.18.26-.35.26h-2.16Z"/>
  </g>
</svg>