<?xml version="1.0" encoding="UTF-8"?>
<svg id="Layer_1" xmlns="http://www.w3.org/2000/svg" xmlns:xlink="http://www.w3.org/1999/xlink" version="1.1" viewBox="0 0 80 80">
  <!-- Generator: Adobe Illustrator 29.0.0, SVG Export Plug-In . SVG Version: 2.1.0 Build 186)  -->
  <defs>
    <style>
      .st0 {
        fill: url(#linear-gradient2);
      }

      .st1 {
        fill: url(#linear-gradient1);
      }

      .st2 {
        fill: url(#linear-gradient3);
      }

      .st3 {
        fill: url(#linear-gradient5);
      }

      .st4 {
        fill: url(#linear-gradient4);
      }

      .st5 {
        fill: #231f20;
      }

      .st6 {
        fill: url(#linear-gradient);
      }
    </style>
    <linearGradient id="linear-gradient" x1="18.66" y1="54.11" x2="18.66" y2="40.85" gradientUnits="userSpaceOnUse">
      <stop offset="0" stop-color="#fdbc19"/>
      <stop offset=".1" stop-color="#f9bf2a"/>
      <stop offset=".29" stop-color="#f1c856"/>
      <stop offset=".37" stop-color="#eecd6b"/>
      <stop offset=".69" stop-color="#eaba10"/>
      <stop offset="1" stop-color="#c2912e"/>
    </linearGradient>
    <linearGradient id="linear-gradient1" x1="23.64" y1="34.41" x2="23.64" y2="15.65" xlink:href="#linear-gradient"/>
    <linearGradient id="linear-gradient2" x1="35.05" y1="54.13" x2="35.05" xlink:href="#linear-gradient"/>
    <linearGradient id="linear-gradient3" x1="56.56" y1="34.41" x2="56.56" y2="15.65" xlink:href="#linear-gradient"/>
    <linearGradient id="linear-gradient4" x1="50.95" y1="34.41" x2="50.95" y2="25.29" xlink:href="#linear-gradient"/>
    <linearGradient id="linear-gradient5" x1="58.67" y1="54.05" x2="58.67" xlink:href="#linear-gradient"/>
  </defs>
  <g>
    <path class="st6" d="M25.32,54.09c-4.53,0-9.05.05-13.58-.02-.64-.09-.47-.83-.27-1.23,1.79-.07,3.93-.14,5.11-1.71.95-1.05.8-2.54.85-3.85v-6.43h2.44v7.67c-.07,1.35.57,2.69,1.72,3.42,1.19.82,2.69.76,4.07.91.64.26.39,1.37-.33,1.24Z"/>
    <path class="st1" d="M36.03,34.41h-9.96c-2.07-4.77-4.13-9.54-6.2-14.32,0,4.77,0,9.54,0,14.32h-2.44c0-4.21,0-8.42,0-12.63-.08-1.11.04-2.31-.44-3.34-1.1-1.56-3.2-1.49-4.9-1.5-.5.12-1-.39-.78-.88.1-.53.7-.36,1.08-.41,5.21.01,10.42,0,15.63,0,2.67,6.25,5.34,12.5,8.01,18.75Z"/>
    <path class="st0" d="M28.87,40.85h12.36c-1.79,4.21-3.6,8.4-5.43,12.6-.15.52-.7.95-1.18.5-.4-.59-.62-1.27-.91-1.92-1.61-3.72-3.23-7.45-4.84-11.17Z"/>
    <path class="st2" d="M70.17,28.58c-2.25,1.72-5.97,1.28-7.56-1.13-1.03-1.61-1.16-3.55-1.4-5.39-.18-1.38-.98-2.86-2.45-3.18-2.1-.41-4.11.61-5.87,1.64-2.92,1.76-5.07,4.58-6.43,7.68-.83,2.08-1.69,4.15-2.54,6.21h-2.65c.67-1.69,1.35-3.38,2.03-5.06,1.22-2.92,2.55-5.85,4.57-8.32,2.84-3.49,7.37-5.41,11.84-5.38,3-.02,6.14.63,8.53,2.54,1.62,1.32,3.07,3.05,3.45,5.16.4,1.84.01,4.01-1.52,5.23Z"/>
    <path class="st4" d="M53.81,34.41h-5.72c.38-.81.78-1.61,1.2-2.4,1.03-2.02,1.96-4.11,3.37-5.91.25-.35.58-.62.95-.82-.29,3.03-.26,6.11.2,9.13Z"/>
    <path class="st3" d="M72.87,44.73c-1.64,3.22-4.16,6.07-7.42,7.69-3.52,1.83-7.76,2.07-11.54.98-4.46-1.35-7.76-5.15-9.46-9.37-.25-.55.06-1.12.25-1.63.22-.51.44-1.03.65-1.55h10.21c.86,2.01,2.03,3.91,3.74,5.29,2.47,1.98,6.21,2.16,8.84.4,1.36-.81,2.35-2.06,3.54-3.08.78-.32,1.59.53,1.18,1.27Z"/>
  </g>
  <g>
    <path class="st5" d="M10.14,34.76l.4-.35c.31-.27.61-.53.89-.76.17-.15.65-.52.81-.6.02-.01.35-.14.47-.13.15.02.44.07.5.27.03.1.07.49.02.55l-.27.35c-.2.35-.44.73-.66,1.12-.18.32-.36.66-.49.99-.14.31-.29.67-.44,1.05-.18.45-.37.92-.54,1.35-.18.46-.33.88-.42,1.2-.02.05-.18.55-.23.88-.06.29-.19.65-.17.79,0,.03.01.26.02.42,0,.19.02.33.01.36-.01.12-.07.15-.11.1-.04-.05-.12-.23-.14-.46-.02-.22-.02-.49-.01-.66.02-.24.19-1.51.3-2.03.07-.27.21-.81.39-1.41l.24-.78c.12-.37.24-.74.36-1.07.06-.16.12-.31.18-.45.19-.44.34-.76.35-1.01,0-.04-.02-.07-.05-.08-.1-.01-.28.02-.55.25-.26.2-.56.34-.8.52-.43.31-.81.65-1.15.92-.31.27-.72.66-1.13,1.01-.27.24-.61.6-.81.81-.19.21-.28.39-.41.48-.18.13-.43.18-.55.18-.15,0-.41-.22-.41-.31,0-.11-.05-.26,0-.49.03-.15.15-.61.2-.71.27-.76.34-.85.49-1.33.09-.26.09-.22.14-.47.05-.19.21-.44.13-.55-.14-.21-.68.16-.92.38-.14.13-.3.28-.47.46-.14.14-.28.29-.43.45-.25.26-.5.55-.77.84-.41.46-.83.94-1.23,1.39-.54.61-1.04,1.15-1.4,1.5-.17.16-.29.38-.46.52-.21.18-.56.22-.64.22-.13,0-.32-.23-.31-.34,0-.02-.08-.02-.07-.15,0-.09.12-.44.13-.52.08-.19.42-.32.46-.32.14-.02.54-.16.92-.47.5-.4.98-.76,1.48-1.23.36-.34.71-.69,1.06-1.03l1.23-1.24c.36-.36.7-.71,1.03-1.01.2-.18.53-.4.67-.5.08-.05.25-.1.41-.11.15,0,.29.03.32.04.08.03.3.19.21.43-.02.09-.14.42-.24.59-.23.49-.51,1.04-.6,1.35-.17.54-.15.59-.21,1,0,.02-.07.35.04.35.08,0,.18-.04.22-.07.06-.03.35-.2.78-.53.49-.38.91-.81,1.24-1.09.36-.3.68-.58.99-.85Z"/>
    <path class="st5" d="M16.67,36.06c0,.06-.02.11-.04.21-.01.08-.09.21-.13.22-.04.02-.18.12-.22.12-.12,0-.24-.05-.38-.02-.09.02-.2,0-.32.05-.24.11-.43.23-.58.35-.32.23-.49.41-.66.58-.13.12-.3.25-.44.44-.03.03-.24.31-.22.37.01.04.18-.09.29-.15.6-.33,2.01-1.2,2.45-1.43.09-.1.25-.14.31-.14.05,0,.25.05.32.1s.08.13.08.2c0,.15-.02.26-.16.34-.19.1-.21.33-.25.38-.08.16-.15.38-.15.5,0,.15.03.25.08.31.09.1.23.11.38.05.25-.08.53-.24.69-.35.5-.32.88-.52,1.02-.69.03-.04.26-.11.32-.07.02.01.05.15,0,.18-.12.08-.18.09-.35.21-.15.11-.56.35-.75.48-.38.26-.76.57-1.05.78-.27.2-.33.27-.61.29-.29.02-.58-.35-.52-.73.02-.15.03-.43.09-.67.04-.18.03-.17.07-.3.01-.06.01-.11-.05-.12-.06,0-.14,0-.26.04-.13.04-.31.12-.35.14l-.53.33c-.29.19-.49.32-.7.54-.09.1-.31.26-.44.4-.2.2-.34.39-.45.43-.17.07-.44.03-.55-.06-.1-.09-.21-.36-.2-.45.03-.14.1-.33.22-.52.12-.17.24-.37.42-.57.28-.31.51-.51.86-.82.19-.16.5-.42.71-.56.24-.14.53-.31.84-.44.26-.12.54-.23.69-.24.26-.01.49.15.5.28Z"/>
    <path class="st5" d="M21.1,39.12c-.14.07-.29.12-.42.18-.15.07-.38.1-.59.13-.17.02-.37.02-.5.04-.15.03-.44,0-.72-.05-.14-.03-.32-.08-.5-.14-.16-.05-.32-.12-.44-.19-.1-.05-.18-.12-.22-.18-.2-.3-.04-.47.02-.28.02.07.12.14.26.2.1.04.23.09.36.12.26.07.53.12.69.1.22-.02.41.02.77-.02.13-.02.29-.07.46-.09.09-.01.3-.07.39-.29.07-.15-.06-.36-.22-.48-.09-.08-.18-.2-.3-.28-.09-.07-.19-.13-.28-.19-.15-.1-.28-.2-.3-.27-.05-.22,0-.32.03-.37.07-.13.19-.25.33-.37.13-.1.29-.2.44-.3.16-.1.33-.19.47-.26.12-.07.25-.13.38-.18.21-.08.42-.13.56-.16.14-.03.27-.04.41-.02.03.02.17.03.26.08.09.06.13.16.14.19.01.06-.04.18-.07.25-.09.18-.19.31-.37.42-.05.03-.2.09-.33.11-.13.02-.24-.02-.26-.16,0-.02,0-.11,0-.14-.01-.05-.04-.06-.07-.07-.03-.01-.04-.04-.12-.03-.05.02-.24-.01-.33.03-.1.04-.18.02-.22.05-.14.08-.24.12-.31.15-.1.05-.16.09-.24.23-.09.14.13.24.19.3.05.07.17.14.27.2.14.08.29.24.44.33.1.05.31.18.42.32.12.14.17.29.14.5-.02.09-.04.13-.18.3-.02.03-.22.14-.43.26Z"/>
    <path class="st5" d="M23.24,38.51c.05-.19.24-.53.37-.75.25-.41.49-.85.69-1.15.31-.47.7-.93,1.03-1.39-.22.05-.39.1-.5.14-.15.05-.7.19-.82.22-.1.03-.48,0-.55-.03-.1-.05-.09-.29-.02-.37.04-.03.25-.36.48-.39.19-.03.39.03.7.02.34-.02.72-.03,1.07-.05.14-.15.27-.29.39-.42.11-.14.19-.27.2-.32.01-.05.07-.21.24-.3.09-.05.45-.13.6-.04.05.03.1.26.1.33,0,.1-.04.19-.12.27-.12.13-.31.23-.44.31-.03.02-.07.05-.12.09.44-.03.97-.05,1.45-.06.51,0,1.03.05,1.15.05.2.01.26.08.19.12-.18.08-.12.02-.37.05-.06,0-.53-.01-.83,0-.27,0-.58.05-.82.07-.3.02-.52.09-.63.12-.16.04-.35.06-.52.08-.18.2-.39.42-.57.67-.34.48-.51.8-.76,1.19-.14.2-.32.62-.43.84-.11.22-.21.48-.21.61,0,.08.02.13.07.15.07.03.16.02.23,0,.19-.04.53-.16.86-.32.31-.15.74-.29,1.02-.43.16-.08.6-.2.71-.26.04-.02.13.03.14.06,0,.02,0,.12-.04.14-.09.04-.18.02-.29.05-.25.08-.64.29-.96.46-.55.3-.69.39-1.09.63-.07.04-.48.25-.63.35-.14.09-.3.12-.34.14-.1.03-.33-.01-.47-.09-.12-.07-.22-.16-.24-.32-.03-.24.02-.27.06-.47Z"/>
    <path class="st5" d="M32.27,37.61s-.06.11-.14.14c-.1.04-.2-.03-.37.02-.16.05-.35.12-.54.21-.21.1-.49.2-.7.31-.22.11-.43.22-.65.34-.22.12-.45.24-.7.36-.38.17-.61.3-.92.42-.15.05-.29.07-.53.1-.19.02-.46-.1-.59-.25-.08-.1-.18-.33-.15-.51.03-.14.1-.38.2-.55.14-.23.29-.42.51-.66.19-.21.42-.42.67-.62.16-.14.35-.27.54-.4.16-.11.33-.21.49-.3.22-.13.46-.2.67-.26.19-.05.37-.08.52-.09.22-.02.38.02.46.08.09.07.29.24.27.33-.02.09-.02.29-.09.37-.07.08-.2.16-.3.2-.12.05-.22.09-.31.11-.2.05-.42.12-.68.21-.14.05-.28.11-.44.18-.19.08-.4.19-.6.3l-.61.32s-.07.1-.1.16c-.1.2-.2.32-.22.46-.02.18.08.27.21.27.2.01.48-.04.84-.18.19-.08.42-.17.65-.27.32-.14.67-.29,1-.43.27-.11.53-.21.75-.29.44-.15.56-.19.72-.19.07,0,.14.07.14.12ZM30.33,36.48v-.04c-.08-.03-.19-.03-.29.01-.17.07-.36.24-.53.33-.23.14-.32.25-.53.42-.13.11-.22.2-.32.31.14-.07.39-.19.7-.35l.49-.26c.19-.1.3-.18.35-.21.05-.04.13-.13.13-.21Z"/>
    <path class="st5" d="M33.5,36.08c.09-.03.25-.05.37-.04.05,0,.14.03.21.07.06.03.1.09.13.12.04.04.07.18.04.24-.03.09-.07.12-.13.19-.04.04-.09.07-.18.19l-.13.2s-.03.08,0,.08c.04,0,.12-.05.13-.06.09-.08.18-.17.25-.22.25-.19.72-.56,1.09-.77.09-.05.21-.13.3-.17.11-.05.2-.08.32-.11.11-.03.16,0,.28-.02.05,0,.2.04.24.1.04.05.09.17.08.22-.05.21-.16.37-.35.5-.09.06-.05.08-.14.08-.14.01-.2.02-.31-.02-.15-.05-.22-.1-.33-.1-.09,0-.3.05-.42.1-.12.04-.39.25-.57.38-.22.15-.56.47-.76.66-.36.33-.28.26-.55.6-.14.17-.16.31-.19.37-.04.1-.03.23-.05.3-.02.11-.08.2-.15.29-.09.12-.33.2-.49.19-.13-.01-.31-.29-.33-.41,0-.16.1-.42.18-.58.14-.29.22-.42.54-.88.12-.16.44-.61.53-.76.07-.09.08-.41.14-.5.04-.09.1-.2.24-.25Z"/>
    <path class="st5" d="M38.63,39.12c-.14.07-.29.12-.42.18-.15.07-.38.1-.59.13-.17.02-.37.02-.5.04-.15.03-.44,0-.72-.05-.14-.03-.32-.08-.5-.14-.16-.05-.32-.12-.44-.19-.1-.05-.18-.12-.22-.18-.2-.3-.04-.47.02-.28.02.07.12.14.26.2.1.04.23.09.36.12.26.07.53.12.69.1.22-.02.41.02.77-.02.13-.02.29-.07.46-.09.09-.01.3-.07.39-.29.07-.15-.06-.36-.22-.48-.09-.08-.18-.2-.3-.28-.09-.07-.19-.13-.28-.19-.15-.1-.28-.2-.3-.27-.05-.22,0-.32.03-.37.07-.13.19-.25.33-.37.13-.1.29-.2.44-.3.16-.1.33-.19.47-.26.12-.07.25-.13.38-.18.21-.08.42-.13.56-.16.14-.03.27-.04.41-.02.03.02.17.03.26.08.09.06.13.16.14.19.01.06-.04.18-.07.25-.09.18-.19.31-.37.42-.05.03-.2.09-.33.11-.13.02-.24-.02-.26-.16,0-.02,0-.11,0-.14-.01-.05-.04-.06-.07-.07-.03-.01-.04-.04-.12-.03-.05.02-.24-.01-.33.03-.1.04-.18.02-.22.05-.14.08-.24.12-.31.15-.1.05-.16.09-.24.23-.09.14.13.24.19.3.05.07.17.14.27.2.14.08.29.24.44.33.1.05.31.18.42.32.12.14.17.29.14.5-.02.09-.04.13-.18.3-.02.03-.22.14-.43.26Z"/>
    <path class="st5" d="M52.56,34.46c-.06-.02-.4-.19-.36-.42.03-.13.04-.16.08-.29.03-.09.21-.43-.04-.44-.19-.02-.32-.05-.54.02-.56.18-1.07.31-1.66.7-.24.15-.58.38-.92.65-.3.22-.61.48-.81.6-.32.19-.69.57-.97.82-.37.3-.71.64-1.05,1.01-.37.42-.54.72-.75,1.04-.17.28-.34.73-.34.94,0,.42.03.67.53.89.21.09.86.05,1.13.03.31-.03.74-.11,1.11-.18.46-.1,1.09-.25,1.59-.42.67-.2.85-.3,1.75-.58.47-.16,1.34-.38,1.72-.46.07,0,.48-.08.52.02,0,.01,0,.15-.03.21-.04.07-.27.14-.31.13-.26-.04-1.13.09-1.71.29-.7.25-.98.35-1.62.61-.62.26-1.15.47-1.76.66-.46.15-.89.27-1.31.33-.21.03-.53.09-.83.1s-.58-.05-.75-.08c-.71-.13-1.11-.64-1.03-1.37.03-.22.04-.42.14-.64.09-.24.26-.53.41-.76.26-.45.6-.88.97-1.25.36-.37.75-.72,1.16-1.06.43-.33.86-.66,1.3-.94.73-.48,1.43-.86,2.03-1.12.15-.07.43-.21.7-.31.23-.07.46-.1.71-.15.35-.08.67-.13.92-.12.18,0,.43.07.58.16.09.05.24.12.33.33.07.16.13.12.1.33-.01.07,0,.12,0,.14-.06.24-.26.41-.43.52-.13.06-.5.07-.54.05Z"/>
    <path class="st5" d="M57.77,34.31l-.14.1c-.32.22-.7.49-.93.82-.28.38-.49.61-.75.99-.12.18-.25.39-.36.6-.12.22-.24.46-.33.65-.09.19-.25.55-.27.79,0,.08.02.19.14.27.07.04.26.04.32.02.21-.05.4-.13.73-.31.31-.16.64-.32.97-.52.14-.08.57-.3.69-.31.1,0,.17.04.18.09.01.04-.07.13-.1.14-.09.04-.39.11-.51.18-.36.19-.75.44-1.21.73-.22.15-.49.31-.69.47-.26.22-.54.33-.66.37-.06.02-.2.06-.33.04-.09-.01-.27-.11-.32-.17-.15-.19-.16-.47-.14-.6.02-.17.09-.4.18-.66.08-.2.26-.53.37-.74.23-.41.41-.71.69-1.12.21-.31.43-.62.67-.94.27-.36.5-.7.67-.93.11-.16.2-.26.22-.29.09-.1.2-.25.38-.32.2-.09.46-.06.55-.04.04.01.12.1.18.16.02.02.06.06.05.11-.03.24-.02.24-.25.39Z"/>
    <path class="st5" d="M58.86,38c-.09.2-.13.37-.09.44.02.05.04.08.09.08.12,0,.4-.06.53-.11.15-.06.35-.15.58-.26.13-.07.27-.15.42-.24.13-.08.31-.19.5-.28.19-.1.36-.19.42-.23.03-.02.13-.04.2-.04.04,0,.07.04.07.05,0,.02.05.1,0,.15-.04.03-.08.04-.1.05-.1.05-.28.1-.35.14-.25.13-.42.18-.71.39-.2.15-.6.39-.78.52-.38.26-.6.47-.78.56-.07.04-.22.13-.26.14-.05.03-.26.08-.41-.02-.05-.04-.15-.05-.22-.14-.05-.07-.08-.2-.1-.29-.03-.15.04-.56.18-.84.11-.22.31-.61.42-.75.07-.09.26-.35.28-.49.01-.12.22-.33.29-.4.03-.04.26-.22.36-.29.14-.09.25-.03.32-.04.21-.03.38.18.34.3-.03.09-.16.19-.27.3-.07.07-.15.17-.24.28-.11.14-.21.28-.28.36-.16.21-.3.45-.4.66ZM60.03,35.2c0-.07.01-.14.02-.19.03-.21.14-.4.27-.54.15-.15.31-.26.41-.31.06-.02.15-.04.24-.03.16.01.35.08.41.2.04.09-.06.31-.09.36-.08.12-.12.16-.15.2-.11.13-.26.25-.48.38-.05.03-.29.1-.41.1-.1,0-.21-.1-.21-.16Z"/>
    <path class="st5" d="M65.55,37.36c-.07.24-.12.36-.13.48-.02.13-.08.3-.08.36,0,.17.02.28.06.35.05.09.16.11.3.06.29-.1.59-.25.74-.36.5-.35.79-.52.96-.69.05-.04.28-.1.34-.07.02.02.03.16-.02.18-.13.09-.19.1-.37.21l-.75.53c-.37.27-.77.55-1.06.75-.27.18-.32.21-.59.22-.3.02-.47-.32-.44-.71.01-.11.03-.33.06-.53.02-.21.11-.58.17-.83.03-.18.03-.18.03-.23,0-.12-.06-.19-.18-.16-.1.02-.34.18-.39.22-.23.16-.31.21-.55.39-.19.15-.38.35-.53.48-.14.12-.47.45-.55.57-.15.22-.15.2-.25.33-.1.13-.26.31-.33.37-.09.07-.23.15-.37.09-.15-.06-.31-.26-.3-.42.02-.21.14-.38.2-.55.04-.09.18-.36.33-.56.09-.12.36-.5.49-.71.07-.13.26-.42.26-.43.08-.11.12-.24.21-.36.07-.1.19-.14.27-.16.16-.04.29-.07.42-.04.08.02.2.08.22.14.02.07.02.16,0,.22-.03.07-.05.16-.14.26-.03.04-.2.14-.24.18-.13.14-.26.29-.36.42-.02.03-.13.24-.13.33,0,.03.03.03.05.03.07,0,.61-.43.7-.48.29-.21.49-.36.75-.56.13-.1.29-.24.41-.33.1-.08.24-.18.31-.24.11-.09.32-.15.4-.18.12-.03.29.02.41.14.05.05.1.12.08.2-.02.14-.07.27-.12.33-.1.13-.22.45-.32.75Z"/>
    <path class="st5" d="M68.75,38c-.09.2-.13.37-.09.44.02.05.04.08.09.08.12,0,.4-.06.53-.11.15-.06.35-.15.58-.26.13-.07.27-.15.42-.24.13-.08.31-.19.5-.28.19-.1.36-.19.42-.23.03-.02.13-.04.2-.04.04,0,.07.04.07.05,0,.02.05.1,0,.15-.04.03-.08.04-.1.05-.1.05-.28.1-.35.14-.25.13-.42.18-.71.39-.2.15-.6.39-.78.52-.38.26-.6.47-.78.56-.07.04-.22.13-.26.14-.05.03-.26.08-.41-.02-.05-.04-.15-.05-.22-.14-.05-.07-.08-.2-.1-.29-.03-.15.04-.56.18-.84.11-.22.31-.61.42-.75.07-.09.26-.35.28-.49.01-.12.22-.33.29-.4.03-.04.26-.22.36-.29.14-.09.25-.03.32-.04.21-.03.38.18.34.3-.03.09-.16.19-.27.3-.07.07-.15.17-.24.28-.11.14-.21.28-.28.36-.16.21-.3.45-.4.66ZM69.91,35.2c0-.07.01-.14.02-.19.03-.21.14-.4.27-.54.15-.15.31-.26.41-.31.06-.02.15-.04.24-.03.16.01.35.08.41.2.04.09-.06.31-.09.36-.08.12-.12.16-.15.2-.11.13-.26.25-.48.38-.05.03-.29.1-.41.1-.1,0-.21-.1-.21-.16Z"/>
    <path class="st5" d="M76.54,37.61s-.05.11-.14.14c-.11.04-.21-.03-.37.02-.17.05-.35.12-.54.21-.25.12-.56.26-.86.39-.4.19-.96.5-1.19.61-.38.17-.61.3-.92.42-.15.05-.29.07-.53.1-.2.02-.46-.1-.59-.25-.09-.1-.19-.33-.15-.51.04-.14.1-.38.2-.55.14-.23.29-.42.52-.66.19-.21.42-.42.67-.62.31-.25.71-.52,1.03-.7.43-.24.88-.32,1.2-.35.22-.02.37.02.46.08.09.07.28.24.26.33-.01.09-.01.29-.09.37-.06.08-.19.16-.29.2-.11.03-.26.03-.33.03-.06,0-.14-.04-.18-.07-.05-.03-.13-.14-.13-.2,0-.03,0-.08.02-.14v-.02c-.07-.03-.18-.03-.27.01-.16.07-.36.24-.53.33-.23.14-.32.25-.53.42-.16.14-.27.24-.41.41-.15.19-.3.32-.39.5-.1.2-.21.32-.22.46-.02.18.08.27.21.27.2.01.48-.04.83-.18.49-.2,1.43-.6,1.97-.81.25-.09.23-.11.43-.18.43-.15.55-.19.72-.19.06,0,.14.07.14.12Z"/>
    <path class="st5" d="M78.53,39.12c-.14.07-.29.12-.42.18-.15.07-.38.1-.59.13-.17.02-.37.02-.5.04-.15.03-.44,0-.72-.05-.14-.03-.32-.08-.5-.14-.16-.05-.32-.12-.44-.19-.1-.05-.18-.12-.22-.18-.2-.3-.04-.47.02-.28.02.07.12.14.26.2.1.04.23.09.36.12.26.07.53.12.69.1.22-.02.41.02.77-.02.13-.02.29-.07.46-.09.09-.01.3-.07.39-.29.07-.15-.06-.36-.22-.48-.09-.08-.18-.2-.3-.28-.09-.07-.19-.13-.28-.19-.15-.1-.28-.2-.3-.27-.05-.22,0-.32.03-.37.07-.13.19-.25.33-.37.13-.1.29-.2.44-.3.16-.1.33-.19.47-.26.12-.07.25-.13.38-.18.21-.08.42-.13.56-.16.14-.03.27-.04.41-.02.03.02.17.03.26.08.09.06.13.16.14.19.01.06-.04.18-.07.25-.09.18-.19.31-.37.42-.05.03-.2.09-.33.11-.13.02-.24-.02-.26-.16,0-.02,0-.11,0-.14-.01-.05-.04-.06-.07-.07-.03-.01-.04-.04-.12-.03-.05.02-.24-.01-.33.03-.1.04-.18.02-.22.05-.14.08-.24.12-.31.15-.1.05-.16.09-.24.23-.09.14.13.24.19.3.05.07.17.14.27.2.14.08.29.24.44.33.1.05.31.18.42.32.12.14.17.29.14.5-.02.09-.04.13-.18.3-.02.03-.22.14-.43.26Z"/>
  </g>
  <g>
    <path class="st5" d="M12.88,63.1c0,.3-.12.55-.36.78-.23.21-.52.36-.86.43-.14.03-.28.05-.42.05-.2,0-.4-.03-.59-.1-.35-.12-.59-.31-.73-.55.15.06.35.09.6.09.15,0,.3-.02.46-.05.51-.11.77-.4.77-.87v-4.27c.17,0,.35.02.56.07.38.09.57.24.57.45v3.98ZM12.82,57.75c0,.05-.03.1-.09.15-.07.05-.15.08-.25.08h-.73v-.66s.03-.09.09-.14c.08-.06.16-.09.25-.09h.74v.66Z"/>
    <path class="st5" d="M16.62,62.5h-.15c-.12,0-.3-.02-.52-.07-.05-.01-.11-.02-.19-.04v.71c0,.3-.12.55-.36.78-.23.21-.52.36-.86.43-.14.03-.28.05-.42.05-.2,0-.4-.03-.59-.1-.35-.12-.59-.31-.73-.55.15.06.35.09.6.09.15,0,.3-.02.46-.05.51-.11.77-.4.77-.87v-4.27c.17,0,.35.02.56.07.38.09.57.24.57.45v2.52c.23.05.43.07.61.07h.26v.79Z"/>
    <path class="st5" d="M16.39,61.72h1.89v.78h-1.89v-.78Z"/>
    <path class="st5" d="M21.21,62.5c-.53,0-.95-.1-1.26-.31-.32.2-.71.31-1.17.31h-.14s-.58,0-.58,0v-.78h.62c.4,0,.6-.2.6-.58v-2.02c0-.2.19-.34.58-.44.2-.05.39-.08.56-.08v2.62c0,.15.06.27.19.37.12.08.25.13.41.13h.55v.78h-.37ZM19.64,57.75c0,.05-.03.1-.09.15-.07.05-.15.08-.25.08h-.74v-.65s.03-.09.09-.14c.07-.06.15-.09.24-.09h.74v.66ZM21.14,57.75c0,.05-.03.1-.09.15-.07.05-.15.08-.25.08h-.74v-.65s.03-.09.09-.14c.07-.06.15-.09.24-.09h.75v.66Z"/>
    <path class="st5" d="M21.35,61.72h1.89v.78h-1.89v-.78Z"/>
    <path class="st5" d="M23.01,61.72h.73v-2.6c0-.21.19-.36.58-.45.2-.05.39-.07.56-.07v3.04c.23.05.43.07.61.07.4,0,.6-.19.6-.57v-2.02c0-.2.19-.34.58-.44.2-.05.39-.08.56-.08v2.63c0,.15.06.27.19.37.12.08.25.13.41.13.4,0,.6-.23.6-.69v-1.92c0-.2.19-.35.58-.44.2-.05.39-.07.56-.08v2.57c0,.42-.15.75-.45.98-.28.23-.65.34-1.11.34-.53,0-.95-.1-1.26-.31-.32.21-.71.31-1.17.31-.12,0-.3-.02-.52-.07-.23-.05-.4-.08-.52-.08-.25,0-.44.02-.57.06-.13.04-.22.07-.29.08-.03,0-.07,0-.1,0h-.57v-.78Z"/>
    <path class="st5" d="M32.18,62.5c-.12,0-.3-.02-.52-.07-.23-.05-.4-.08-.52-.08-.38,0-.65.05-.8.14v-4.76c0-.21.19-.36.57-.45.2-.05.39-.07.56-.07v4.43c.23.05.43.07.61.07h.37v.79h-.27Z"/>
    <path class="st5" d="M32.23,61.72h1.89v.78h-1.89v-.78Z"/>
    <path class="st5" d="M33.89,61.72h1.89v.78h-1.89v-.78Z"/>
    <path class="st5" d="M37.27,62.35c-.06-.01-.12-.02-.18-.02-.03,0-.07,0-.1,0-.09.01-.2.04-.33.08-.13.04-.22.07-.29.08-.03,0-.07,0-.1,0h-.71v-.78h.97c-.06-.19-.09-.36-.09-.53v-1.29c0-.42.15-.75.45-.97.31-.24.78-.36,1.4-.36s1.1.12,1.41.36c.3.23.45.55.45.97v1.28c0,.89-.62,1.33-1.86,1.33-.4,0-.74-.05-1.02-.15ZM37.57,61.07c0,.23.05.39.14.5.11.12.3.18.57.18s.47-.06.58-.18c.09-.1.14-.27.14-.5v-1.06c0-.23-.05-.39-.14-.49-.11-.11-.31-.17-.58-.17s-.46.06-.57.17c-.09.1-.14.26-.14.49v1.06Z"/>
    <path class="st5" d="M45.65,62.5c-1.07,0-1.78-.27-2.11-.81-.15-.24-.22-.52-.22-.82,0-.15.02-.31.05-.47.11-.52.35-.84.7-.95-.08.24-.11.49-.11.74,0,.37.1.68.3.94.31.39.77.59,1.38.59h2.56c.41,0,.61-.19.61-.58v-2.02c0-.2.19-.34.58-.44.2-.05.39-.08.56-.08v2.65c0,.45-.17.77-.51.98-.28.17-.66.26-1.13.26h-2.66ZM46.32,58.76c0,.05-.03.1-.09.15-.07.05-.15.08-.25.08h-.74v-.65s.03-.09.09-.14c.07-.06.15-.09.24-.09h.74v.66ZM47.82,58.76c0,.05-.03.1-.09.15-.07.05-.15.08-.25.08h-.74v-.65s.03-.09.09-.14c.07-.06.15-.09.24-.09h.75v.66Z"/>
    <path class="st5" d="M51.88,62.06c0,.21-.2.36-.59.45-.2.05-.4.07-.57.07v-4.85c0-.21.2-.36.59-.45.21-.05.4-.07.57-.07v4.84Z"/>
    <path class="st5" d="M53.29,62.5c-.27,0-.44-.09-.54-.28-.07-.14-.1-.33-.1-.6.12.07.42.1.9.1h1.34v-1.59c0-.32-.09-.54-.27-.66-.12-.08-.31-.12-.57-.12-.24,0-.45.07-.62.22-.2.17-.3.37-.3.59-.17-.25-.25-.5-.25-.75,0-.31.18-.53.53-.68.26-.11.56-.16.9-.16.55,0,.98.12,1.28.36.29.23.44.56.44.97v2.61h-2.74Z"/>
    <path class="st5" d="M58.64,62.5c-.12,0-.3-.02-.52-.07-.23-.05-.4-.08-.52-.08-.38,0-.65.05-.8.14v-4.76c0-.21.19-.36.57-.45.2-.05.39-.07.56-.07v4.43c.23.05.44.07.61.07h.37v.79h-.27Z"/>
    <path class="st5" d="M58.68,61.72h1.89v.78h-1.89v-.78Z"/>
    <path class="st5" d="M63.5,62.5c-.53,0-.95-.1-1.26-.31-.32.2-.71.31-1.17.31h-.14s-.58,0-.58,0v-.78h.62c.4,0,.6-.2.6-.58v-2.02c0-.2.19-.34.58-.44.2-.05.39-.08.56-.08v2.62c0,.15.06.27.19.37.12.08.25.13.41.13h.55v.78h-.37ZM61.84,63.74c0,.05-.03.1-.09.15-.07.05-.15.08-.25.08h-.74v-.65s.03-.09.09-.14c.07-.06.15-.09.24-.09h.74v.66ZM63.34,63.74c0,.05-.03.1-.09.15-.07.05-.15.08-.25.08h-.74v-.65s.03-.09.09-.14c.07-.06.15-.09.24-.09h.75v.66Z"/>
    <path class="st5" d="M63.64,61.72h1.89v.78h-1.89v-.78Z"/>
    <path class="st5" d="M65.31,61.72h1.89v.78h-1.89v-.78Z"/>
    <path class="st5" d="M66.97,62.5v-.78h1.6c-.53-.16-.8-.53-.8-1.11v-.75c0-.42.14-.74.43-.97.3-.24.73-.36,1.28-.36.35,0,.65.05.91.16.35.15.53.37.53.68,0,.25-.08.5-.25.75,0-.22-.1-.42-.3-.59-.17-.14-.38-.22-.62-.22-.26,0-.45.04-.57.13-.18.12-.27.35-.27.68v.92c.02.17.08.3.17.39.17.19.44.29.79.29h1.2c0,.11-.03.23-.08.37-.11.28-.29.42-.56.42h-3.46Z"/>
  </g>
</svg>